<!DOCTYPE svg PUBLIC "-//W3C//DTD SVG 1.1//EN" "http://www.w3.org/Graphics/SVG/1.1/DTD/svg11.dtd">
<!-- Uploaded to: SVG Repo, www.svgrepo.com, Transformed by: SVG Repo Mixer Tools -->
<svg width="800px" height="800px" viewBox="0 0 24 24" fill="none" xmlns="http://www.w3.org/2000/svg">
<g id="SVGRepo_bgCarrier" stroke-width="0"/>
<g id="SVGRepo_tracerCarrier" stroke-linecap="round" stroke-linejoin="round"/>
<g id="SVGRepo_iconCarrier"> <path d="M5.99988 18.9142C4.04366 18.5171 2.57129 16.7876 2.57129 14.7142C2.57129 12.6408 4.04366 10.9113 5.99988 10.5142C5.99987 10.5095 5.99986 10.5047 5.99986 10.5C5.99986 7.46243 8.4623 5 11.4999 5C14.5374 5 16.9999 7.46243 16.9999 10.5C16.9999 10.6685 16.9923 10.8353 16.9774 11H16.9999C19.209 11 20.9999 12.7909 20.9999 15C20.9999 16.8638 19.7251 18.4299 17.9999 18.874" stroke="#400061" stroke-width="2" stroke-linecap="round" stroke-linejoin="round"/> <path d="M9 16.4286C9 15.9552 9.38376 15.5714 9.85714 15.5714H14.1429C14.6162 15.5714 15 15.9552 15 16.4286V19.1429C15 19.6162 14.6162 20 14.1429 20H9.85714C9.38376 20 9 19.6162 9 19.1429V16.4286Z" stroke="#400061" stroke-width="2" stroke-linecap="round" stroke-linejoin="round"/> <path d="M10.7143 14.2857C10.7143 13.5756 11.2899 13 12 13C12.7101 13 13.2857 13.5756 13.2857 14.2857V15.5714H10.7143V14.2857Z" stroke="#400061" stroke-width="2" stroke-linecap="round" stroke-linejoin="round"/> </g>
</svg>