<!DOCTYPE svg PUBLIC "-//W3C//DTD SVG 1.1//EN" "http://www.w3.org/Graphics/SVG/1.1/DTD/svg11.dtd">
<!-- Uploaded to: SVG Repo, www.svgrepo.com, Transformed by: SVG Repo Mixer Tools -->
<svg width="800px" height="800px" viewBox="0 0 24 24" fill="none" xmlns="http://www.w3.org/2000/svg">
<g id="SVGRepo_bgCarrier" stroke-width="0"/>
<g id="SVGRepo_tracerCarrier" stroke-linecap="round" stroke-linejoin="round"/>
<g id="SVGRepo_iconCarrier"> <path fill-rule="evenodd" clip-rule="evenodd" d="M22.5495 4.33897C22.2357 2.04721 19.6752 1.31272 18.0012 2.51193C16.6758 3.4614 14.9703 4.60236 13.2896 5.50172C11.5617 6.42633 10.0306 6.99998 9 6.99998H4C2.34315 6.99998 1 8.34312 1 9.99998V13C1 14.5834 2.22678 15.8804 3.78175 15.9922L3.37637 18.019C3.07284 19.5367 3.97365 21.0361 5.45607 21.4809L6.66894 21.8447C8.32897 22.3427 10.0644 21.3346 10.4542 19.6458L11.1775 16.5115C11.828 16.7623 12.5403 17.0973 13.2896 17.4982C14.9703 18.3976 16.6758 19.5386 18.0012 20.488C19.6752 21.6872 22.2357 20.9527 22.5495 18.661C22.7843 16.9458 23 14.5424 23 11.5C23 8.45759 22.7843 6.05415 22.5495 4.33897ZM19.1659 4.13779C19.4791 3.91345 19.8248 3.89252 20.0858 3.98998C20.3336 4.08249 20.5232 4.28363 20.568 4.61028C20.7911 6.23958 21 8.55232 21 11.5C21 14.4476 20.7911 16.7604 20.568 18.3897C20.5232 18.7163 20.3336 18.9175 20.0858 19.01C19.8248 19.1074 19.4791 19.0865 19.1659 18.8622C17.8074 17.889 16.0226 16.6924 14.2332 15.7348C12.491 14.8026 10.5724 14 9 14H4C3.44772 14 3 13.5523 3 13V9.99998C3 9.44769 3.44772 8.99998 4 8.99998H9C10.5724 8.99998 12.491 8.1974 14.2332 7.26512C16.0226 6.3076 17.8074 5.11099 19.1659 4.13779ZM9.24072 16.0096C9.15774 16.0032 9.07745 16 9 16H5.81979L5.33753 18.4113C5.23636 18.9171 5.53663 19.417 6.03077 19.5652L7.24363 19.9291C7.79698 20.0951 8.37547 19.759 8.50537 19.1961L9.24072 16.0096Z" fill="#400061"/> </g>
</svg>