<!DOCTYPE svg PUBLIC "-//W3C//DTD SVG 1.1//EN" "http://www.w3.org/Graphics/SVG/1.1/DTD/svg11.dtd">
<!-- Uploaded to: SVG Repo, www.svgrepo.com, Transformed by: SVG Repo Mixer Tools -->
<svg fill="#400061" height="800px" width="800px" version="1.1" id="Layer_1" xmlns="http://www.w3.org/2000/svg" xmlns:xlink="http://www.w3.org/1999/xlink" viewBox="0 0 512 512" xml:space="preserve">
<g id="SVGRepo_bgCarrier" stroke-width="0"/>
<g id="SVGRepo_tracerCarrier" stroke-linecap="round" stroke-linejoin="round"/>
<g id="SVGRepo_iconCarrier"> <g> <g> <path d="M466.823,0H366.432H145.565H45.175C33.532,0,24.093,9.439,24.093,21.082v100.392v100.393V322.26 c0,11.643,9.439,21.082,21.082,21.082h100.392h0.028h220.838h100.392c11.643,0,21.082-9.439,21.082-21.082V221.867V121.474V21.082 C487.906,9.439,478.466,0,466.823,0z M66.258,42.165h55.382c-7.403,26.814-28.568,47.981-55.382,55.382V42.165z M66.258,301.176 v-55.383c26.814,7.403,47.981,28.568,55.382,55.383H66.258z M347.183,301.176H164.787c-8.811-50.109-48.422-89.713-98.531-98.524 v-61.932c50.118-8.808,89.749-48.439,98.557-98.556h182.37c8.808,50.117,48.439,89.748,98.556,98.556v61.898 C395.622,211.425,355.99,251.059,347.183,301.176z M445.741,301.176h-55.382c7.403-26.815,28.568-47.982,55.382-55.383V301.176z M445.741,97.547c-26.814-7.401-47.981-28.568-55.383-55.382h55.383V97.547z"/> </g> </g> <g> <g> <path d="M466.823,385.506H45.175c-11.643,0-21.082,9.439-21.082,21.082c0,11.643,9.439,21.082,21.082,21.082h421.648 c11.643,0,21.082-9.439,21.082-21.082C487.906,394.945,478.466,385.506,466.823,385.506z"/> </g> </g> <g> <g> <path d="M466.823,469.835H45.175c-11.643,0-21.082,9.439-21.082,21.082c0,11.643,9.439,21.082,21.082,21.082h421.648 c11.643,0,21.082-9.439,21.082-21.082C487.906,479.274,478.466,469.835,466.823,469.835z"/> </g> </g> <g> <g> <path d="M308.4,124.989c-14.245-10.683-32.855-16.567-52.402-16.567c-19.548,0-38.158,5.885-52.402,16.568 c-15.823,11.868-24.898,28.883-24.898,46.682c0,17.798,9.075,34.811,24.9,46.679c14.243,10.683,32.853,16.565,52.401,16.565 s38.156-5.883,52.401-16.565c15.826-11.867,24.903-28.881,24.903-46.679C333.301,153.872,324.226,136.858,308.4,124.989z M255.998,192.752c-20.11,0-35.136-11.129-35.136-21.08c0-9.954,15.026-21.085,35.136-21.085 c20.111,0,35.139,11.131,35.139,21.085C291.137,181.623,276.108,192.752,255.998,192.752z"/> </g> </g> </g>
</svg>