<svg version="1.2" xmlns="http://www.w3.org/2000/svg" viewBox="0 0 318 172" width="318" height="172"><style>.a{fill:#00e6c3}.b{fill:#400061}</style><path class="a" d="m232.5 0.7c-47 0-85.2 38.1-85.2 85.2 0 47.1 38.1 85.2 85.2 85.2 47.1 0 85.2-38.1 85.2-85.2 0-47.1-38.2-85.2-85.2-85.2zm9.6 138.1l-32.1-27.5-47.4 21.7 46.3-64.1 11.6 18.3 50-76.2z"/><path class="b" d="m26.2 88h-17.5c-0.4 0-0.7 0-1 0.1-0.3 0.1-0.4 0.2-0.6 0.3-0.3 0.3-0.5 0.8-0.5 1.3 0 0.5 0.2 1 0.6 1.3 0.1 0.1 0.3 0.2 0.5 0.3 0.2 0.1 0.5 0.1 0.9 0.1h10.7c1.4 0 2.5 0.2 3.5 0.6 0.9 0.4 1.7 0.9 2.4 1.6 0.7 0.7 1.2 1.4 1.5 2.3q0.6 1.4 0.6 2.7c0 0.9-0.2 1.7-0.5 2.6-0.3 0.8-0.8 1.5-1.3 2.2-0.7 0.8-1.5 1.4-2.5 1.8-1 0.5-2.2 0.7-3.7 0.7h-18.8v-6.2h17.7c0.5 0 0.9-0.1 1.2-0.2 0.3-0.1 0.5-0.3 0.7-0.5 0.3-0.3 0.4-0.7 0.4-1.1 0-0.5-0.2-1-0.5-1.3-0.2-0.2-0.4-0.3-0.6-0.4-0.2-0.1-0.6-0.1-1.1-0.1h-9.9q-2.4 0-3.9-0.6c-1-0.4-1.8-0.9-2.5-1.6-0.6-0.7-1.2-1.4-1.5-2.3-0.4-0.9-0.5-1.8-0.5-2.8 0-1 0.2-1.9 0.6-2.8 0.4-0.9 0.9-1.6 1.5-2.3 0.6-0.7 1.5-1.2 2.4-1.6q1.5-0.6 3.9-0.6h17.9v6.5zm21.5-6.4c1.7 0 3.2 0.2 4.3 0.7 1.2 0.5 2.2 1.1 3 1.9 0.8 0.8 1.5 1.8 2 3 0.5 1.1 0.7 2.3 0.7 3.5 0 1.1-0.2 2.1-0.6 3.1-0.4 1-0.9 1.9-1.6 2.7-0.8 1-1.9 1.8-3.2 2.4-1.3 0.6-2.8 0.9-4.7 0.9h-11.1v6.1h-6.5v-22.8c0-1 0.5-1.5 1.6-1.5zm0.1 12.2c0.7 0 1.3-0.1 1.7-0.3 0.4-0.2 0.8-0.5 1.1-0.8 0.4-0.5 0.6-1.1 0.6-1.7q0-1.1-0.6-1.8c-0.3-0.3-0.6-0.6-1.1-0.8-0.4-0.2-1-0.3-1.7-0.3h-10.9c-0.3 0-0.5 0.2-0.5 0.5v5.3h11.4zm39.1 11c0.1 0.2 0.2 0.4 0.2 0.5 0.1 0.2 0.1 0.3 0.2 0.5h-7.3c0-0.2-0.1-0.3-0.1-0.5 0-0.1-0.1-0.3-0.1-0.4l-1.3-3h-14.5l-1.3 2.9c0 0.1-0.1 0.3-0.1 0.4 0 0.1-0.1 0.3-0.1 0.4h-7.5c0-0.2 0.1-0.4 0.2-0.5 0.1-0.2 0.1-0.3 0.2-0.5l8.7-19.3c0.7-1.5 1.6-2.6 2.7-3.4 1.1-0.7 2.6-1.1 4.3-1.1 1.7 0 3.1 0.4 4.3 1.1 1.1 0.7 2.1 1.9 2.8 3.4zm-10.9-8l-3.7-8.7c-0.1-0.3-0.3-0.5-0.5-0.6-0.2-0.1-0.4-0.2-0.6-0.2-0.2 0-0.4 0.1-0.6 0.2-0.2 0.1-0.3 0.3-0.5 0.6l-3.7 8.7zm20.4 9.1h-6.5v-22.8c0-1 0.5-1.5 1.6-1.5h17.3c1.5 0 2.8 0.2 3.7 0.6 1 0.4 1.8 1 2.5 1.7 0.6 0.6 1.1 1.4 1.4 2.2 0.3 0.8 0.5 1.7 0.5 2.6 0 1-0.2 1.9-0.5 2.8-0.3 0.9-0.9 1.6-1.8 2.3q1.2 0.7 1.8 1.8c0.4 0.7 0.6 1.8 0.6 3.2v6.2c0 0.3 0 0.7 0.1 1h-6.6c-0.1-0.5-0.1-1.1-0.1-1.6v-4.9c0-0.8-0.2-1.3-0.6-1.7-0.4-0.3-1.1-0.5-2.1-0.5h-11.3zm11.5-14.2c0.5 0 0.8-0.1 1.1-0.2 0.3-0.1 0.5-0.3 0.7-0.6 0.3-0.4 0.5-0.8 0.5-1.3 0-0.6-0.2-1-0.5-1.4q-0.6-0.6-1.8-0.6h-11c-0.4 0-0.5 0.2-0.5 0.5v3.5h11.5zm18.9-10.1v10l11.1-9c0.4-0.3 0.7-0.6 1-1h9.1l-0.3 0.3c-0.1 0.1-0.2 0.2-0.4 0.3l-13.4 10.4c-0.1 0.1-0.2 0.3-0.2 0.4 0 0.1 0.1 0.3 0.2 0.4l14.4 11.6c0.2 0.1 0.3 0.3 0.5 0.4 0.2 0.1 0.3 0.3 0.5 0.5h-9.7c-0.2-0.3-0.6-0.6-1.1-1l-11.7-9.8v10.8h-6.6v-24.3zm50.2 6.4h-17.5c-0.4 0-0.7 0-1 0.1l-0.6 0.3c-0.3 0.3-0.5 0.8-0.5 1.3 0 0.5 0.2 1 0.6 1.3 0.1 0.1 0.3 0.2 0.5 0.3 0.2 0.1 0.5 0.1 0.9 0.1h10.7c1.4 0 2.5 0.2 3.5 0.6 0.9 0.4 1.7 0.9 2.4 1.6 0.6 0.7 1.2 1.4 1.5 2.3q0.6 1.3 0.6 2.7c0 0.9-0.2 1.7-0.5 2.6-0.3 0.8-0.8 1.5-1.3 2.2-0.7 0.8-1.5 1.4-2.5 1.8-1 0.5-2.2 0.7-3.7 0.7h-18.9v-6.2h17.8c0.5 0 0.9-0.1 1.2-0.2 0.3-0.1 0.5-0.3 0.7-0.5 0.3-0.3 0.4-0.7 0.4-1.1 0-0.5-0.2-1-0.5-1.3-0.2-0.2-0.4-0.3-0.6-0.4-0.2-0.1-0.6-0.1-1.1-0.1h-9.9q-2.4 0-3.9-0.6c-1-0.4-1.8-0.9-2.5-1.6-0.6-0.7-1.2-1.4-1.5-2.3-0.4-0.9-0.5-1.8-0.5-2.8 0-1 0.2-1.9 0.6-2.8 0.4-0.9 0.9-1.6 1.5-2.3 0.6-0.7 1.5-1.2 2.4-1.6q1.5-0.6 3.9-0.6h17.8zm16.1 17.9c-2.2 0-4.1-0.4-5.7-1.1-1.6-0.7-3-1.7-4.1-2.9-1-1.1-1.8-2.3-2.3-3.7-0.6-1.4-0.8-2.9-0.8-4.5 0-1.8 0.3-3.4 1-5 0.7-1.5 1.7-2.9 2.9-4 1.1-1 2.4-1.8 3.8-2.4 1.5-0.6 3.2-0.8 5.2-0.8h5.1c2 0 3.7 0.3 5.2 0.8 1.5 0.6 2.8 1.4 3.8 2.4 1.2 1.1 2.2 2.5 2.9 4 0.7 1.5 1 3.2 1 5 0 1.6-0.3 3.1-0.8 4.5-0.6 1.4-1.3 2.6-2.3 3.7-1.1 1.2-2.5 2.2-4.1 2.9-1.6 0.7-3.5 1.1-5.7 1.1zm0-17.9c-1.1 0-2 0.1-2.7 0.4-0.7 0.3-1.3 0.7-1.9 1.2-0.6 0.5-1 1.2-1.3 1.9-0.3 0.7-0.5 1.5-0.5 2.3 0 0.7 0.1 1.4 0.4 2.1 0.3 0.7 0.6 1.2 1.1 1.7 0.5 0.6 1.2 1 2 1.4 0.8 0.3 1.8 0.5 2.9 0.5h5.1c1.2 0 2.1-0.2 2.9-0.5 0.8-0.3 1.5-0.8 2-1.4 0.5-0.5 0.9-1.1 1.1-1.7 0.3-0.7 0.4-1.4 0.4-2.1 0-0.8-0.2-1.6-0.5-2.3-0.3-0.7-0.8-1.3-1.3-1.9-0.5-0.5-1.2-0.9-1.9-1.2-0.7-0.3-1.6-0.4-2.7-0.4zm46.3 17.9h-12.7c-2.2 0-4.1-0.4-5.7-1.1-1.6-0.7-3-1.7-4.1-2.9-1-1.1-1.8-2.3-2.3-3.7-0.6-1.4-0.8-2.9-0.8-4.5 0-1.8 0.3-3.4 1-5 0.7-1.5 1.7-2.9 2.9-4 1.1-1 2.4-1.8 3.8-2.4 1.5-0.6 3.2-0.8 5.2-0.8h12.7v6.4h-12.7c-1.1 0-2 0.1-2.7 0.4-0.7 0.3-1.3 0.7-1.9 1.2-0.6 0.5-1 1.2-1.3 1.9-0.3 0.7-0.5 1.5-0.5 2.3 0 0.7 0.1 1.4 0.4 2.1 0.3 0.7 0.6 1.2 1.1 1.7 0.5 0.6 1.2 1 2 1.4 0.8 0.3 1.8 0.5 2.9 0.5h12.7zm9.7-24.3v24.3h-6.6v-24.3zm34.5 23.2c0.1 0.2 0.2 0.4 0.2 0.5 0.1 0.2 0.1 0.3 0.2 0.5h-7.3c0-0.2-0.1-0.3-0.1-0.5 0-0.1-0.1-0.3-0.1-0.4l-1.3-3h-14.4l-1.3 2.9c0 0.1-0.1 0.3-0.1 0.4 0 0.1-0.1 0.3-0.1 0.4h-7.5c0-0.2 0.1-0.4 0.2-0.5 0.1-0.2 0.1-0.3 0.2-0.5l8.7-19.3c0.7-1.5 1.6-2.6 2.7-3.4 1.1-0.7 2.6-1.1 4.3-1.1 1.7 0 3.1 0.4 4.3 1.1 1.1 0.7 2.1 1.9 2.8 3.4zm-10.9-8l-3.7-8.7c-0.1-0.3-0.3-0.5-0.5-0.6-0.2-0.1-0.4-0.2-0.6-0.2-0.2 0-0.4 0.1-0.6 0.2-0.2 0.1-0.3 0.3-0.5 0.6l-3.7 8.7zm20.1 9.1c-1.5 0-2.7-0.2-3.8-0.5q-1.5-0.5-2.4-1.5c-0.6-0.7-1-1.5-1.3-2.5-0.3-1-0.4-2.2-0.4-3.5v-16.4h6.6v15.8c0 0.9 0.1 1.5 0.5 1.8 0.3 0.3 0.9 0.5 1.7 0.5h16.9v6.2h-17.8z"/></svg>