<svg xmlns="http://www.w3.org/2000/svg" version="1.2" baseProfile="tiny" viewBox="0 0 443 273.7" xml:space="preserve"><path fill="#00EFC5" d="M291.5 51.7c-47 0-85.2 38.1-85.2 85.2s38.1 85.2 85.2 85.2 85.2-38.1 85.2-85.2-38.2-85.2-85.2-85.2zm9.6 138.1L269 162.3 221.6 184l46.3-64.1 11.6 18.3 50-76.2-28.4 127.8z"/><g fill="#400061"><path d="M85.2 139H67.7c-.4 0-.7 0-1 .1s-.4.2-.6.3c-.3.3-.5.8-.5 1.3s.2 1 .6 1.3c.1.1.3.2.5.3.2.1.5.1.9.1h10.7c1.4 0 2.5.2 3.5.6.9.4 1.7.9 2.4 1.6s1.2 1.4 1.5 2.3c.4.9.6 1.8.6 2.7 0 .9-.2 1.7-.5 2.6-.3.8-.8 1.5-1.3 2.2-.7.8-1.5 1.4-2.5 1.8-1 .5-2.2.7-3.7.7H59.5v-6.2h17.7c.5 0 .9-.1 1.2-.2.3-.1.5-.3.7-.5.3-.3.4-.7.4-1.1 0-.5-.2-1-.5-1.3-.2-.2-.4-.3-.6-.4s-.6-.1-1.1-.1h-9.9c-1.6 0-2.9-.2-3.9-.6-1-.4-1.8-.9-2.5-1.6-.6-.7-1.2-1.4-1.5-2.3-.4-.9-.5-1.8-.5-2.8 0-1 .2-1.9.6-2.8.4-.9.9-1.6 1.5-2.3.6-.7 1.5-1.2 2.4-1.6 1-.4 2.3-.6 3.9-.6h17.9v6.5zM106.7 132.6c1.7 0 3.2.2 4.3.7 1.2.5 2.2 1.1 3 1.9.8.8 1.5 1.8 2 3 .5 1.1.7 2.3.7 3.5 0 1.1-.2 2.1-.6 3.1-.4 1-.9 1.9-1.6 2.7-.8 1-1.9 1.8-3.2 2.4-1.3.6-2.8.9-4.7.9H95.5v6.1H89v-22.8c0-1 .5-1.5 1.6-1.5h16.1zm.1 12.2c.7 0 1.3-.1 1.7-.3.4-.2.8-.5 1.1-.8.4-.5.6-1.1.6-1.7 0-.7-.2-1.3-.6-1.8-.3-.3-.6-.6-1.1-.8-.4-.2-1-.3-1.7-.3H95.9c-.3 0-.5.2-.5.5v5.3h11.4zM145.9 155.8c.1.2.2.4.2.5.1.2.1.3.2.5H139c0-.2-.1-.3-.1-.5 0-.1-.1-.3-.1-.4l-1.3-3H123l-1.3 2.9c0 .1-.1.3-.1.4 0 .1-.1.3-.1.4H114c0-.2.1-.4.2-.5.1-.2.1-.3.2-.5l8.7-19.3c.7-1.5 1.6-2.6 2.7-3.4 1.1-.7 2.6-1.1 4.3-1.1 1.7 0 3.1.4 4.3 1.1 1.1.7 2.1 1.9 2.8 3.4l8.7 19.5zm-10.9-8-3.7-8.7c-.1-.3-.3-.5-.5-.6-.2-.1-.4-.2-.6-.2-.2 0-.4.1-.6.2-.2.1-.3.3-.5.6l-3.7 8.7h9.6zM155.4 156.9h-6.5v-22.8c0-1 .5-1.5 1.6-1.5h17.3c1.5 0 2.8.2 3.7.6 1 .4 1.8 1 2.5 1.7.6.6 1.1 1.4 1.4 2.2.3.8.5 1.7.5 2.6 0 1-.2 1.9-.5 2.8-.3.9-.9 1.6-1.8 2.3.8.5 1.4 1.1 1.8 1.8.4.7.6 1.8.6 3.2v6.2c0 .3 0 .7.1 1h-6.6c-.1-.5-.1-1.1-.1-1.6v-4.9c0-.8-.2-1.3-.6-1.7-.4-.3-1.1-.5-2.1-.5h-11.3v8.6zm11.5-14.2c.5 0 .8-.1 1.1-.2.3-.1.5-.3.7-.6.3-.4.5-.8.5-1.3 0-.6-.2-1-.5-1.4-.4-.4-1-.6-1.8-.6h-11c-.4 0-.5.2-.5.5v3.5h11.5zM185.8 132.6v10l11.1-9c.4-.3.7-.6 1-1h9.1l-.3.3c-.1.1-.2.2-.4.3l-13.4 10.4c-.1.1-.2.3-.2.4 0 .1.1.3.2.4l14.4 11.6c.2.1.3.3.5.4.2.1.3.3.5.5h-9.7c-.2-.3-.6-.6-1.1-1l-11.7-9.8v10.8h-6.6v-24.3h6.6zM236 139h-17.5c-.4 0-.7 0-1 .1l-.6.3c-.3.3-.5.8-.5 1.3s.2 1 .6 1.3c.1.1.3.2.5.3.2.1.5.1.9.1h10.7c1.4 0 2.5.2 3.5.6.9.4 1.7.9 2.4 1.6.6.7 1.2 1.4 1.5 2.3.4.9.6 1.8.6 2.7 0 .9-.2 1.7-.5 2.6-.3.8-.8 1.5-1.3 2.2-.7.8-1.5 1.4-2.5 1.8-1 .5-2.2.7-3.7.7h-18.9v-6.2H228c.5 0 .9-.1 1.2-.2.3-.1.5-.3.7-.5.3-.3.4-.7.4-1.1 0-.5-.2-1-.5-1.3-.2-.2-.4-.3-.6-.4s-.6-.1-1.1-.1h-9.9c-1.6 0-2.9-.2-3.9-.6-1-.4-1.8-.9-2.5-1.6-.6-.7-1.2-1.4-1.5-2.3-.4-.9-.5-1.8-.5-2.8 0-1 .2-1.9.6-2.8.4-.9.9-1.6 1.5-2.3.6-.7 1.5-1.2 2.4-1.6 1-.4 2.3-.6 3.9-.6H236v6.5zM252.1 156.9c-2.2 0-4.1-.4-5.7-1.1-1.6-.7-3-1.7-4.1-2.9-1-1.1-1.8-2.3-2.3-3.7-.6-1.4-.8-2.9-.8-4.5 0-1.8.3-3.4 1-5 .7-1.5 1.7-2.9 2.9-4 1.1-1 2.4-1.8 3.8-2.4 1.5-.6 3.2-.8 5.2-.8h5.1c2 0 3.7.3 5.2.8 1.5.6 2.8 1.4 3.8 2.4 1.2 1.1 2.2 2.5 2.9 4 .7 1.5 1 3.2 1 5 0 1.6-.3 3.1-.8 4.5-.6 1.4-1.3 2.6-2.3 3.7-1.1 1.2-2.5 2.2-4.1 2.9-1.6.7-3.5 1.1-5.7 1.1h-5.1zm0-17.9c-1.1 0-2 .1-2.7.4-.7.3-1.3.7-1.9 1.2-.6.5-1 1.2-1.3 1.9-.3.7-.5 1.5-.5 2.3 0 .7.1 1.4.4 2.1.3.7.6 1.2 1.1 1.7.5.6 1.2 1 2 1.4.8.3 1.8.5 2.9.5h5.1c1.2 0 2.1-.2 2.9-.5.8-.3 1.5-.8 2-1.4.5-.5.9-1.1 1.1-1.7.3-.7.4-1.4.4-2.1 0-.8-.2-1.6-.5-2.3-.3-.7-.8-1.3-1.3-1.9-.5-.5-1.2-.9-1.9-1.2-.7-.3-1.6-.4-2.7-.4h-5.1zM298.4 156.9h-12.7c-2.2 0-4.1-.4-5.7-1.1-1.6-.7-3-1.7-4.1-2.9-1-1.1-1.8-2.3-2.3-3.7-.6-1.4-.8-2.9-.8-4.5 0-1.8.3-3.4 1-5 .7-1.5 1.7-2.9 2.9-4 1.1-1 2.4-1.8 3.8-2.4 1.5-.6 3.2-.8 5.2-.8h12.7v6.4h-12.7c-1.1 0-2 .1-2.7.4-.7.3-1.3.7-1.9 1.2-.6.5-1 1.2-1.3 1.9-.3.7-.5 1.5-.5 2.3 0 .7.1 1.4.4 2.1.3.7.6 1.2 1.1 1.7.5.6 1.2 1 2 1.4.8.3 1.8.5 2.9.5h12.7v6.5zM308.1 132.6v24.3h-6.6v-24.3h6.6zM342.6 155.8c.1.2.2.4.2.5.1.2.1.3.2.5h-7.3c0-.2-.1-.3-.1-.5 0-.1-.1-.3-.1-.4l-1.3-3h-14.4l-1.3 2.9c0 .1-.1.3-.1.4 0 .1-.1.3-.1.4h-7.5c0-.2.1-.4.2-.5.1-.2.1-.3.2-.5l8.7-19.3c.7-1.5 1.6-2.6 2.7-3.4 1.1-.7 2.6-1.1 4.3-1.1 1.7 0 3.1.4 4.3 1.1 1.1.7 2.1 1.9 2.8 3.4l8.6 19.5zm-10.9-8-3.7-8.7c-.1-.3-.3-.5-.5-.6-.2-.1-.4-.2-.6-.2-.2 0-.4.1-.6.2-.2.1-.3.3-.5.6l-3.7 8.7h9.6zM351.8 156.9c-1.5 0-2.7-.2-3.8-.5-1-.3-1.8-.8-2.4-1.5s-1-1.5-1.3-2.5c-.3-1-.4-2.2-.4-3.5v-16.4h6.6v15.8c0 .9.1 1.5.5 1.8.3.3.9.5 1.7.5h16.9v6.2h-17.8z"/></g></svg>